<svg xmlns="http://www.w3.org/2000/svg" width="800" height="500" viewBox="0 0 800 500">
  <rect width="800" height="500" fill="#0a1428" rx="12"/>
  <rect x="0" y="0" width="800" height="48" fill="#132848" rx="12"/>
  <rect x="0" y="24" width="800" height="24" fill="#132848"/>
  <circle cx="24" cy="24" r="6" fill="#ef4444"/>
  <circle cx="44" cy="24" r="6" fill="#fbbf24"/>
  <circle cx="64" cy="24" r="6" fill="#22c55e"/>
  <rect x="100" y="14" width="350" height="20" rx="10" fill="#0a1428"/>
  <text x="275" y="28" font-family="monospace" font-size="11" fill="#6b7280" text-anchor="middle">https://aisupportagent.app</text>
  <rect x="0" y="48" width="200" height="452" fill="#132848" rx="0"/>
  <rect x="220" y="70" width="540" height="60" fill="#132848" rx="8"/>
  <rect x="240" y="150" width="300" height="50" fill="#1e3a5f" rx="12"/>
  <rect x="460" y="220" width="300" height="50" fill="#6366f1" rx="12"/>
  <rect x="240" y="290" width="300" height="50" fill="#1e3a5f" rx="12"/>
  <rect x="220" y="400" width="540" height="50" fill="#132848" rx="8"/>
  <text x="400" y="470" font-size="13" fill="#9ca3af" text-anchor="middle">🎧 AI Support Agent — Python · TypeScript</text>
</svg>