<svg xmlns="http://www.w3.org/2000/svg" width="800" height="500" viewBox="0 0 800 500">
  <rect width="800" height="500" fill="#140a28" rx="12"/>
  <rect x="0" y="0" width="800" height="48" fill="#221440" rx="12"/>
  <rect x="0" y="24" width="800" height="24" fill="#221440"/>
  <circle cx="24" cy="24" r="6" fill="#ef4444"/>
  <circle cx="44" cy="24" r="6" fill="#fbbf24"/>
  <circle cx="64" cy="24" r="6" fill="#22c55e"/>
  <rect x="100" y="14" width="350" height="20" rx="10" fill="#140a28"/>
  <text x="275" y="28" font-family="monospace" font-size="11" fill="#6b7280" text-anchor="middle">https://biolinkai.app</text>
  <rect x="250" y="70" width="300" height="400" fill="#221440" rx="16"/>
  <circle cx="400" cy="150" r="40" fill="#8b5cf6" opacity="0.4"/>
  <rect x="310" y="210" width="180" height="30" fill="#2e1a50" rx="15"/>
  <rect x="310" y="255" width="180" height="30" fill="#2e1a50" rx="15"/>
  <rect x="310" y="300" width="180" height="30" fill="#2e1a50" rx="15"/>
  <rect x="310" y="345" width="180" height="30" fill="#2e1a50" rx="15"/>
  <text x="400" y="470" font-size="13" fill="#9ca3af" text-anchor="middle">🔗 BioLink AI — TypeScript · SaaS</text>
</svg>