<svg xmlns="http://www.w3.org/2000/svg" width="400" height="700" viewBox="0 0 400 700">
  <rect width="400" height="700" rx="16" fill="#1c1c1c"/>
  <rect x="0" y="0" width="400" height="60" rx="16" fill="#1dbf73"/>
  <rect x="0" y="30" width="400" height="30" fill="#1dbf73"/>
  <text x="20" y="38" fill="white" font-family="Arial,sans-serif" font-size="22" font-weight="bold">fiverr</text>
  <text x="280" y="38" fill="white" font-family="Arial,sans-serif" font-size="12">5.0 Rating</text>
  <!-- Stars using polygon shapes -->
  <g transform="translate(280,46)">
    <polygon points="0,-6 1.8,-1.8 7,-1.8 2.8,1.2 4.3,6 0,3.2 -4.3,6 -2.8,1.2 -7,-1.8 -1.8,-1.8" fill="#ffc107"/>
    <polygon points="16,-6 17.8,-1.8 23,-1.8 18.8,1.2 20.3,6 16,3.2 11.7,6 10.2,1.2 6,-1.8 11.2,-1.8" fill="#ffc107"/>
    <polygon points="32,-6 33.8,-1.8 39,-1.8 34.8,1.2 36.3,6 32,3.2 27.7,6 26.2,1.2 22,-1.8 27.2,-1.8" fill="#ffc107"/>
    <polygon points="48,-6 49.8,-1.8 55,-1.8 50.8,1.2 52.3,6 48,3.2 43.7,6 42.2,1.2 38,-1.8 43.2,-1.8" fill="#ffc107"/>
    <polygon points="64,-6 65.8,-1.8 71,-1.8 66.8,1.2 68.3,6 64,3.2 59.7,6 58.2,1.2 54,-1.8 59.2,-1.8" fill="#ffc107"/>
  </g>
  <circle cx="50" cy="100" r="25" fill="#262626"/>
  <text x="50" y="106" text-anchor="middle" fill="#1dbf73" font-family="Arial,sans-serif" font-size="16" font-weight="bold">JK</text>
  <text x="85" y="92" fill="white" font-family="Arial,sans-serif" font-size="14" font-weight="bold">John K.</text>
  <text x="85" y="108" fill="#b0b0b0" font-family="Arial,sans-serif" font-size="11">United States</text>
  <text x="85" y="124" fill="#1dbf73" font-family="Arial,sans-serif" font-size="11">Verified Buyer</text>
  <!-- Star rating row -->
  <g transform="translate(20,148)">
    <polygon points="0,-8 2.4,-2.5 9.3,-2.5 3.8,1.5 5.8,8 0,4.3 -5.8,8 -3.8,1.5 -9.3,-2.5 -2.4,-2.5" fill="#ffc107"/>
    <polygon points="22,-8 24.4,-2.5 31.3,-2.5 25.8,1.5 27.8,8 22,4.3 16.2,8 14.2,1.5 8.7,-2.5 15.6,-2.5" fill="#ffc107"/>
    <polygon points="44,-8 46.4,-2.5 53.3,-2.5 47.8,1.5 49.8,8 44,4.3 38.2,8 36.2,1.5 30.7,-2.5 37.6,-2.5" fill="#ffc107"/>
    <polygon points="66,-8 68.4,-2.5 75.3,-2.5 69.8,1.5 71.8,8 66,4.3 60.2,8 58.2,1.5 52.7,-2.5 59.6,-2.5" fill="#ffc107"/>
    <polygon points="88,-8 90.4,-2.5 97.3,-2.5 91.8,1.5 93.8,8 88,4.3 82.2,8 80.2,1.5 74.7,-2.5 81.6,-2.5" fill="#ffc107"/>
    <text x="110" y="4" fill="#b0b0b0" font-family="Arial,sans-serif" font-size="12">2 weeks ago</text>
  </g>
  <text x="20" y="190" fill="white" font-family="Arial,sans-serif" font-size="16" font-weight="bold">Exceptional AI Agent Developer!</text>
  <text x="20" y="220" fill="#d0d0d0" font-family="Arial,sans-serif" font-size="12">Mamoor built an AI sales agent for our</text>
  <text x="20" y="238" fill="#d0d0d0" font-family="Arial,sans-serif" font-size="12">e-commerce store that handles customer</text>
  <text x="20" y="256" fill="#d0d0d0" font-family="Arial,sans-serif" font-size="12">inquiries 24/7. The agent increased our</text>
  <text x="20" y="274" fill="#d0d0d0" font-family="Arial,sans-serif" font-size="12">conversion rate by 35% in the first month!</text>
  <text x="20" y="300" fill="#d0d0d0" font-family="Arial,sans-serif" font-size="12">His technical depth with multi-agent systems</text>
  <text x="20" y="318" fill="#d0d0d0" font-family="Arial,sans-serif" font-size="12">is rare. Delivered on time, clean code,</text>
  <text x="20" y="336" fill="#d0d0d0" font-family="Arial,sans-serif" font-size="12">great communication throughout.</text>
  <rect x="20" y="360" width="360" height="60" rx="10" fill="#262626"/>
  <text x="35" y="382" fill="#b0b0b0" font-family="Arial,sans-serif" font-size="11">Service:</text>
  <text x="90" y="382" fill="white" font-family="Arial,sans-serif" font-size="11">AI Agent Development</text>
  <text x="35" y="402" fill="#b0b0b0" font-family="Arial,sans-serif" font-size="11">Price:</text>
  <text x="90" y="402" fill="#1dbf73" font-family="Arial,sans-serif" font-size="11" font-weight="bold">$2,500</text>
  <text x="160" y="402" fill="#b0b0b0" font-family="Arial,sans-serif" font-size="11">Duration:</text>
  <text x="230" y="402" fill="white" font-family="Arial,sans-serif" font-size="11">14 days</text>
  <rect x="20" y="440" width="170" height="70" rx="10" fill="#262626"/>
  <text x="35" y="465" fill="#b0b0b0" font-family="Arial,sans-serif" font-size="10">Response Time</text>
  <text x="35" y="495" fill="#1dbf73" font-family="Arial,sans-serif" font-size="24" font-weight="bold">1 hr</text>
  <rect x="210" y="440" width="170" height="70" rx="10" fill="#262626"/>
  <text x="225" y="465" fill="#b0b0b0" font-family="Arial,sans-serif" font-size="10">Delivery</text>
  <text x="225" y="495" fill="#1dbf73" font-family="Arial,sans-serif" font-size="24" font-weight="bold">On Time</text>
  <rect x="20" y="530" width="360" height="50" rx="10" fill="#0d3d29"/>
  <text x="35" y="558" fill="#1dbf73" font-family="Arial,sans-serif" font-size="13" font-weight="bold">Would recommend for any AI project!</text>
  <rect x="20" y="600" width="360" height="80" rx="10" fill="#1a2a1a" stroke="#1dbf73" stroke-width="1"/>
  <text x="35" y="625" fill="#1dbf73" font-family="Arial,sans-serif" font-size="12" font-weight="bold">Mamoor replied:</text>
  <text x="35" y="645" fill="#b0b0b0" font-family="Arial,sans-serif" font-size="11">Thank you John! It was a pleasure building</text>
  <text x="35" y="663" fill="#b0b0b0" font-family="Arial,sans-serif" font-size="11">your AI agent. Happy to help with Phase 2!</text>
</svg>