<svg xmlns="http://www.w3.org/2000/svg" width="800" height="500" viewBox="0 0 800 500">
  <rect width="800" height="500" fill="#0a1428" rx="12"/>
  <rect x="0" y="0" width="800" height="48" fill="#1a1a2e" rx="12"/>
  <rect x="0" y="24" width="800" height="24" fill="#1a1a2e"/>
  <circle cx="24" cy="24" r="6" fill="#ef4444"/>
  <circle cx="44" cy="24" r="6" fill="#fbbf24"/>
  <circle cx="64" cy="24" r="6" fill="#22c55e"/>
  <rect x="100" y="14" width="400" height="20" rx="10" fill="#111127"/>
  <text x="300" y="28" font-family="'Inter','Segoe UI',sans-serif" font-size="11" fill="#6b7280" text-anchor="middle">github.com/mamoor123/forgesquad</text>
  <rect x="40" y="70" width="720" height="60" fill="#132238" rx="12"/>
  <circle cx="80" cy="100" r="16" fill="#6366f1" opacity="0.3"/>
  <text x="80" y="105" font-family="'Inter',sans-serif" font-size="14" fill="#6366f1" text-anchor="middle">1</text>
  <text x="110" y="96" font-family="'Inter',sans-serif" font-size="11" fill="#e5e7eb">Prospect</text>
  <text x="110" y="112" font-family="'Inter',sans-serif" font-size="9" fill="#6b7280">Find leads</text>
  <line x1="150" y1="100" x2="200" y2="100" stroke="#6366f1" stroke-opacity="0.3" stroke-width="2"/>
  <circle cx="230" cy="100" r="16" fill="#6366f1" opacity="0.3"/>
  <text x="230" y="105" font-family="'Inter',sans-serif" font-size="14" fill="#6366f1" text-anchor="middle">2</text>
  <text x="260" y="96" font-family="'Inter',sans-serif" font-size="11" fill="#e5e7eb">Qualify</text>
  <text x="260" y="112" font-family="'Inter',sans-serif" font-size="9" fill="#6b7280">Score & filter</text>
  <line x1="300" y1="100" x2="350" y2="100" stroke="#6366f1" stroke-opacity="0.3" stroke-width="2"/>
  <circle cx="380" cy="100" r="16" fill="#6366f1" opacity="0.3"/>
  <text x="380" y="105" font-family="'Inter',sans-serif" font-size="14" fill="#6366f1" text-anchor="middle">3</text>
  <text x="410" y="96" font-family="'Inter',sans-serif" font-size="11" fill="#e5e7eb">Outreach</text>
  <text x="410" y="112" font-family="'Inter',sans-serif" font-size="9" fill="#6b7280">Auto message</text>
  <line x1="450" y1="100" x2="500" y2="100" stroke="#6366f1" stroke-opacity="0.3" stroke-width="2"/>
  <circle cx="530" cy="100" r="16" fill="#6366f1" opacity="0.3"/>
  <text x="530" y="105" font-family="'Inter',sans-serif" font-size="14" fill="#6366f1" text-anchor="middle">4</text>
  <text x="560" y="96" font-family="'Inter',sans-serif" font-size="11" fill="#e5e7eb">Meeting</text>
  <text x="560" y="112" font-family="'Inter',sans-serif" font-size="9" fill="#6b7280">Book call</text>
  <rect x="40" y="150" width="350" height="300" fill="#132238" rx="12"/>
  <text x="60" y="175" font-family="'Inter',sans-serif" font-size="13" fill="#818cf8">Active Pipeline</text>
  <rect x="60" y="190" width="310" height="50" fill="#0d1a30" rx="8"/>
  <rect x="70" y="200" width="30" height="30" rx="15" fill="#6366f1" opacity="0.2"/>
  <text x="110" y="212" font-family="'Inter',sans-serif" font-size="11" fill="#e5e7eb">Acme Corp</text>
  <text x="110" y="228" font-family="'Inter',sans-serif" font-size="9" fill="#6b7280">Qualified • $12k</text>
  <rect x="60" y="250" width="310" height="50" fill="#0d1a30" rx="8"/>
  <rect x="70" y="260" width="30" height="30" rx="15" fill="#818cf8" opacity="0.2"/>
  <text x="110" y="272" font-family="'Inter',sans-serif" font-size="11" fill="#e5e7eb">TechStart Inc</text>
  <text x="110" y="288" font-family="'Inter',sans-serif" font-size="9" fill="#6b7280">Outreach • $8k</text>
  <rect x="60" y="310" width="310" height="50" fill="#0d1a30" rx="8"/>
  <rect x="70" y="320" width="30" height="30" rx="15" fill="#6366f1" opacity="0.15"/>
  <text x="110" y="332" font-family="'Inter',sans-serif" font-size="11" fill="#e5e7eb">Global Solutions</text>
  <text x="110" y="348" font-family="'Inter',sans-serif" font-size="9" fill="#6b7280">Prospect • $15k</text>
  <rect x="410" y="150" width="350" height="300" fill="#132238" rx="12"/>
  <text x="430" y="175" font-family="'Inter',sans-serif" font-size="13" fill="#818cf8">Performance</text>
  <text x="430" y="210" font-family="monospace" font-size="32" fill="#6366f1" font-weight="bold">847</text>
  <text x="430" y="230" font-family="'Inter',sans-serif" font-size="10" fill="#6b7280">Leads contacted this week</text>
  <rect x="430" y="250" width="310" height="4" fill="#6366f1" opacity="0.15" rx="2"/>
  <rect x="430" y="250" width="240" height="4" fill="#6366f1" rx="2"/>
  <text x="430" y="280" font-family="monospace" font-size="24" fill="#818cf8" font-weight="bold">23%</text>
  <text x="430" y="300" font-family="'Inter',sans-serif" font-size="10" fill="#6b7280">Response rate</text>
  <text x="430" y="340" font-family="monospace" font-size="24" fill="#6366f1" font-weight="bold">42</text>
  <text x="430" y="360" font-family="'Inter',sans-serif" font-size="10" fill="#6b7280">Meetings booked</text>
  <text x="400" y="485" font-size="13" fill="#6b7280" text-anchor="middle" font-family="'Inter','Segoe UI',sans-serif">🛡️ ForgeSquad — TypeScript · CI/CD · Agents</text>
</svg>