<svg xmlns="http://www.w3.org/2000/svg" width="400" height="700" viewBox="0 0 400 700">
  <rect width="400" height="700" rx="16" fill="#1c1c1c"/>
  <!-- Google header -->
  <rect x="0" y="0" width="400" height="60" rx="16" fill="#202124"/>
  <rect x="0" y="30" width="400" height="30" fill="#202124"/>
  <text x="20" y="24" fill="#8ab4f8" font-family="Arial,sans-serif" font-size="12">Google Reviews</text>
  <text x="20" y="42" fill="white" font-family="Arial,sans-serif" font-size="18" font-weight="bold">Mamoor Ahmad - Developer</text>
  <!-- Overall rating -->
  <rect x="20" y="80" width="360" height="80" rx="12" fill="#262626"/>
  <text x="45" y="125" fill="white" font-family="Arial,sans-serif" font-size="40" font-weight="bold">4.9</text>
  <g transform="translate(120,108)">
    <polygon points="0,-8 2.4,-2.5 9.3,-2.5 3.8,1.5 5.8,8 0,4.3 -5.8,8 -3.8,1.5 -9.3,-2.5 -2.4,-2.5" fill="#ffc107"/>
    <polygon points="22,-8 24.4,-2.5 31.3,-2.5 25.8,1.5 27.8,8 22,4.3 16.2,8 14.2,1.5 8.7,-2.5 15.6,-2.5" fill="#ffc107"/>
    <polygon points="44,-8 46.4,-2.5 53.3,-2.5 47.8,1.5 49.8,8 44,4.3 38.2,8 36.2,1.5 30.7,-2.5 37.6,-2.5" fill="#ffc107"/>
    <polygon points="66,-8 68.4,-2.5 75.3,-2.5 69.8,1.5 71.8,8 66,4.3 60.2,8 58.2,1.5 52.7,-2.5 59.6,-2.5" fill="#ffc107"/>
    <polygon points="88,-8 90.4,-2.5 93,-2.5 91.8,1.5 93.8,8 88,4.3 82.2,8 80.2,1.5 74.7,-2.5 81.6,-2.5" fill="#ffc107"/>
  </g>
  <text x="120" y="145" fill="#9aa0a6" font-family="Arial,sans-serif" font-size="11">Based on 12 reviews</text>
  <!-- Review 1 -->
  <rect x="20" y="180" width="360" height="120" rx="12" fill="#262626"/>
  <circle cx="50" cy="210" r="18" fill="#4285f4"/>
  <text x="50" y="216" text-anchor="middle" fill="white" font-family="Arial,sans-serif" font-size="12" font-weight="bold">MT</text>
  <text x="78" y="205" fill="white" font-family="Arial,sans-serif" font-size="13" font-weight="bold">Mike T.</text>
  <text x="78" y="220" fill="#9aa0a6" font-family="Arial,sans-serif" font-size="10">2 weeks ago</text>
  <g transform="translate(20,240)">
    <polygon points="0,-6 1.8,-1.8 7,-1.8 2.8,1.2 4.3,6 0,3.2 -4.3,6 -2.8,1.2 -7,-1.8 -1.8,-1.8" fill="#ffc107"/>
    <polygon points="16,-6 17.8,-1.8 23,-1.8 18.8,1.2 20.3,6 16,3.2 11.7,6 10.2,1.2 6,-1.8 11.2,-1.8" fill="#ffc107"/>
    <polygon points="32,-6 33.8,-1.8 39,-1.8 34.8,1.2 36.3,6 32,3.2 27.7,6 26.2,1.2 22,-1.8 27.2,-1.8" fill="#ffc107"/>
    <polygon points="48,-6 49.8,-1.8 55,-1.8 50.8,1.2 52.3,6 48,3.2 43.7,6 42.2,1.2 38,-1.8 43.2,-1.8" fill="#ffc107"/>
    <polygon points="64,-6 65.8,-1.8 71,-1.8 66.8,1.2 68.3,6 64,3.2 59.7,6 58.2,1.2 54,-1.8 59.2,-1.8" fill="#ffc107"/>
  </g>
  <text x="20" y="275" fill="#e8eaed" font-family="Arial,sans-serif" font-size="12">Built an AI chatbot for our restaurant chain.</text>
  <text x="20" y="293" fill="#e8eaed" font-family="Arial,sans-serif" font-size="12">Handles reservations, menu questions, and</text>
  <text x="20" y="285" fill="#e8eaed" font-family="Arial,sans-serif" font-size="12">customer feedback 24/7. Game changer!</text>
  <!-- Review 2 -->
  <rect x="20" y="310" width="360" height="120" rx="12" fill="#262626"/>
  <circle cx="50" cy="340" r="18" fill="#34a853"/>
  <text x="50" y="346" text-anchor="middle" fill="white" font-family="Arial,sans-serif" font-size="12" font-weight="bold">AK</text>
  <text x="78" y="335" fill="white" font-family="Arial,sans-serif" font-size="13" font-weight="bold">Aisha K.</text>
  <text x="78" y="350" fill="#9aa0a6" font-family="Arial,sans-serif" font-size="10">1 month ago</text>
  <g transform="translate(20,370)">
    <polygon points="0,-6 1.8,-1.8 7,-1.8 2.8,1.2 4.3,6 0,3.2 -4.3,6 -2.8,1.2 -7,-1.8 -1.8,-1.8" fill="#ffc107"/>
    <polygon points="16,-6 17.8,-1.8 23,-1.8 18.8,1.2 20.3,6 16,3.2 11.7,6 10.2,1.2 6,-1.8 11.2,-1.8" fill="#ffc107"/>
    <polygon points="32,-6 33.8,-1.8 39,-1.8 34.8,1.2 36.3,6 32,3.2 27.7,6 26.2,1.2 22,-1.8 27.2,-1.8" fill="#ffc107"/>
    <polygon points="48,-6 49.8,-1.8 55,-1.8 50.8,1.2 52.3,6 48,3.2 43.7,6 42.2,1.2 38,-1.8 43.2,-1.8" fill="#ffc107"/>
    <polygon points="64,-6 65.8,-1.8 71,-1.8 66.8,1.2 68.3,6 64,3.2 59.7,6 58.2,1.2 54,-1.8 59.2,-1.8" fill="#ffc107"/>
  </g>
  <text x="20" y="405" fill="#e8eaed" font-family="Arial,sans-serif" font-size="12">Mamoor built our Chrome extension for</text>
  <text x="20" y="423" fill="#e8eaed" font-family="Arial,sans-serif" font-size="12">sanctions screening. Works flawlessly and</text>
  <text x="20" y="415" fill="#e8eaed" font-family="Arial,sans-serif" font-size="12">our compliance team loves it. 10/10.</text>
  <!-- Review 3 -->
  <rect x="20" y="440" width="360" height="120" rx="12" fill="#262626"/>
  <circle cx="50" cy="470" r="18" fill="#ea4335"/>
  <text x="50" y="476" text-anchor="middle" fill="white" font-family="Arial,sans-serif" font-size="12" font-weight="bold">RP</text>
  <text x="78" y="465" fill="white" font-family="Arial,sans-serif" font-size="13" font-weight="bold">Raj P.</text>
  <text x="78" y="480" fill="#9aa0a6" font-family="Arial,sans-serif" font-size="10">3 weeks ago</text>
  <g transform="translate(20,500)">
    <polygon points="0,-6 1.8,-1.8 7,-1.8 2.8,1.2 4.3,6 0,3.2 -4.3,6 -2.8,1.2 -7,-1.8 -1.8,-1.8" fill="#ffc107"/>
    <polygon points="16,-6 17.8,-1.8 23,-1.8 18.8,1.2 20.3,6 16,3.2 11.7,6 10.2,1.2 6,-1.8 11.2,-1.8" fill="#ffc107"/>
    <polygon points="32,-6 33.8,-1.8 39,-1.8 34.8,1.2 36.3,6 32,3.2 27.7,6 26.2,1.2 22,-1.8 27.2,-1.8" fill="#ffc107"/>
    <polygon points="48,-6 49.8,-1.8 55,-1.8 50.8,1.2 52.3,6 48,3.2 43.7,6 42.2,1.2 38,-1.8 43.2,-1.8" fill="#ffc107"/>
    <polygon points="64,-6 65.8,-1.8 71,-1.8 66.8,1.2 68.3,6 64,3.2 59.7,6 58.2,1.2 54,-1.8 59.2,-1.8" fill="#ffc107"/>
  </g>
  <text x="20" y="535" fill="#e8eaed" font-family="Arial,sans-serif" font-size="12">Hired Mamoor for a data visualization</text>
  <text x="20" y="553" fill="#e8eaed" font-family="Arial,sans-serif" font-size="12">dashboard. He went above and beyond -</text>
  <text x="20" y="545" fill="#e8eaed" font-family="Arial,sans-serif" font-size="12">even added PDF export we didn't ask for!</text>
  <!-- Stats bar -->
  <rect x="20" y="580" width="360" height="60" rx="12" fill="#262626"/>
  <text x="40" y="607" fill="#8ab4f8" font-family="Arial,sans-serif" font-size="24" font-weight="bold">12</text>
  <text x="40" y="625" fill="#9aa0a6" font-family="Arial,sans-serif" font-size="9">Reviews</text>
  <text x="130" y="607" fill="#34a853" font-family="Arial,sans-serif" font-size="24" font-weight="bold">4.9</text>
  <text x="130" y="625" fill="#9aa0a6" font-family="Arial,sans-serif" font-size="9">Average</text>
  <text x="210" y="607" fill="#ffc107" font-family="Arial,sans-serif" font-size="24" font-weight="bold">100%</text>
  <text x="210" y="625" fill="#9aa0a6" font-family="Arial,sans-serif" font-size="9">Positive</text>
  <text x="310" y="607" fill="#ea4335" font-family="Arial,sans-serif" font-size="24" font-weight="bold">0</text>
  <text x="310" y="625" fill="#9aa0a6" font-family="Arial,sans-serif" font-size="9">Negative</text>
  <!-- Badge -->
  <rect x="20" y="660" width="360" height="25" rx="6" fill="#34a853" opacity="0.15"/>
  <text x="200" y="678" text-anchor="middle" fill="#34a853" font-family="Arial,sans-serif" font-size="10">Google Verified Business  |  Responds within 1 hour</text>
</svg>