<svg xmlns="http://www.w3.org/2000/svg" width="800" height="500" viewBox="0 0 800 500">
  <rect width="800" height="500" fill="#0a1a10" rx="12"/>
  <rect x="0" y="0" width="800" height="48" fill="#1a1a2e" rx="12"/>
  <rect x="0" y="24" width="800" height="24" fill="#1a1a2e"/>
  <circle cx="24" cy="24" r="6" fill="#ef4444"/>
  <circle cx="44" cy="24" r="6" fill="#fbbf24"/>
  <circle cx="64" cy="24" r="6" fill="#22c55e"/>
  <rect x="100" y="14" width="400" height="20" rx="10" fill="#111127"/>
  <text x="300" y="28" font-family="'Inter','Segoe UI',sans-serif" font-size="11" fill="#6b7280" text-anchor="middle">github.com/mamoor123/green-profile</text>
  <rect x="0" y="48" width="180" height="452" fill="#0f2418" rx="0"/>
  <rect x="15" y="65" width="150" height="10" rx="5" fill="#16a34a" opacity="0.3"/>
  <rect x="15" y="90" width="120" height="8" rx="4" fill="#ffffff" opacity="0.08"/>
  <rect x="15" y="110" width="140" height="8" rx="4" fill="#ffffff" opacity="0.08"/>
  <rect x="15" y="130" width="100" height="8" rx="4" fill="#ffffff" opacity="0.08"/>
  <rect x="200" y="65" width="580" height="400" fill="#143020" rx="12"/>
  <text x="490" y="100" font-family="'Inter',sans-serif" font-size="18" fill="#e5e7eb" text-anchor="middle" font-weight="700">Your Store</text>
  <rect x="350" y="120" width="280" height="160" fill="#0f2418" rx="16"/>
  <rect x="370" y="140" width="240" height="120" fill="#143020" rx="12"/>
  <circle cx="490" cy="185" r="30" fill="#16a34a" opacity="0.2"/>
  <text x="490" y="195" font-family="'Inter',sans-serif" font-size="28" fill="#16a34a" text-anchor="middle">🌿</text>
  <text x="490" y="230" font-family="'Inter',sans-serif" font-size="14" fill="#22c55e" text-anchor="middle" font-weight="600">Eco Certified</text>
  <text x="490" y="250" font-family="'Inter',sans-serif" font-size="10" fill="#6b7280" text-anchor="middle">Sustainability Score: 92/100</text>
  <rect x="300" y="310" width="380" height="50" fill="#0f2418" rx="10"/>
  <text x="320" y="330" font-family="'Inter',sans-serif" font-size="12" fill="#e5e7eb">Carbon Offset</text>
  <rect x="320" y="340" width="340" height="6" fill="#16a34a" opacity="0.15" rx="3"/>
  <rect x="320" y="340" width="300" height="6" fill="#16a34a" rx="3"/>
  <text x="670" y="350" font-family="'Inter',sans-serif" font-size="10" fill="#22c55e" text-anchor="end">88%</text>
  <rect x="300" y="375" width="380" height="50" fill="#0f2418" rx="10"/>
  <text x="320" y="395" font-family="'Inter',sans-serif" font-size="12" fill="#e5e7eb">Energy Efficiency</text>
  <rect x="320" y="405" width="340" height="6" fill="#16a34a" opacity="0.15" rx="3"/>
  <rect x="320" y="405" width="280" height="6" fill="#22c55e" rx="3"/>
  <text x="670" y="415" font-family="'Inter',sans-serif" font-size="10" fill="#22c55e" text-anchor="end">82%</text>
  <text x="400" y="485" font-size="13" fill="#6b7280" text-anchor="middle" font-family="'Inter','Segoe UI',sans-serif">🌿 Green Profile — TypeScript · Shopify · Sustainability</text>
</svg>