<svg xmlns="http://www.w3.org/2000/svg" width="800" height="500" viewBox="0 0 800 500">
  <rect width="800" height="500" fill="#1a1408" rx="12"/>
  <rect x="0" y="0" width="800" height="48" fill="#1a1a2e" rx="12"/>
  <rect x="0" y="24" width="800" height="24" fill="#1a1a2e"/>
  <circle cx="24" cy="24" r="6" fill="#ef4444"/>
  <circle cx="44" cy="24" r="6" fill="#fbbf24"/>
  <circle cx="64" cy="24" r="6" fill="#22c55e"/>
  <rect x="100" y="14" width="400" height="20" rx="10" fill="#111127"/>
  <text x="300" y="28" font-family="'Inter','Segoe UI',sans-serif" font-size="11" fill="#6b7280" text-anchor="middle">github.com/mamoor123/hs-code-classifier</text>
  <rect x="0" y="48" width="180" height="452" fill="#262010" rx="0"/>
  <rect x="15" y="65" width="150" height="10" rx="5" fill="#f59e0b" opacity="0.3"/>
  <rect x="15" y="90" width="120" height="8" rx="4" fill="#ffffff" opacity="0.08"/>
  <rect x="15" y="110" width="140" height="8" rx="4" fill="#ffffff" opacity="0.08"/>
  <rect x="200" y="65" width="580" height="200" fill="#302a18" rx="12"/>
  <text x="220" y="90" font-family="'Inter',sans-serif" font-size="14" fill="#e5e7eb">API Playground</text>
  <rect x="220" y="110" width="400" height="36" fill="#262010" rx="8"/>
  <rect x="220" y="110" width="60" height="36" fill="#f59e0b" opacity="0.2" rx="8"/>
  <text x="250" y="133" font-family="monospace" font-size="11" fill="#f59e0b" text-anchor="middle">POST</text>
  <text x="295" y="133" font-family="monospace" font-size="11" fill="#6b7280">/api/v1/classify</text>
  <rect x="640" y="110" width="120" height="36" fill="#f59e0b" rx="8"/>
  <text x="700" y="133" font-family="'Inter',sans-serif" font-size="12" fill="#fff" text-anchor="middle" font-weight="600">Send →</text>
  <rect x="220" y="160" width="540" height="80" fill="#262010" rx="8"/>
  <text x="240" y="180" font-family="monospace" font-size="10" fill="#6b7280">Request Body</text>
  <text x="240" y="200" font-family="monospace" font-size="11" fill="#fbbf24">{"product": "cotton t-shirt", "country": "DE"}</text>
  <rect x="200" y="280" width="580" height="180" fill="#302a18" rx="12"/>
  <text x="220" y="305" font-family="'Inter',sans-serif" font-size="14" fill="#e5e7eb">Response <tspan fill="#22c55e" font-size="11">200 OK</tspan></text>
  <rect x="220" y="320" width="540" height="120" fill="#262010" rx="8"/>
  <text x="240" y="345" font-family="monospace" font-size="11" fill="#fbbf24">"hs_code": "6109.10.00"</text>
  <text x="240" y="365" font-family="monospace" font-size="11" fill="#9ca3af">"description": "T-shirts, singlets...</text>
  <text x="240" y="385" font-family="monospace" font-size="11" fill="#9ca3af">"duty_rate": "12%"</text>
  <text x="240" y="405" font-family="monospace" font-size="11" fill="#f59e0b">"confidence": 0.94</text>
  <text x="240" y="425" font-family="monospace" font-size="11" fill="#6b7280">"countries": ["DE","FR","IT","ES"...</text>
  <text x="400" y="485" font-size="13" fill="#6b7280" text-anchor="middle" font-family="'Inter','Segoe UI',sans-serif">🏷️ HS Code Classifier — JavaScript · API · E-commerce</text>
</svg>