<svg xmlns="http://www.w3.org/2000/svg" width="800" height="500" viewBox="0 0 800 500">
  <rect width="800" height="500" fill="#0a1428" rx="12"/>
  <rect x="0" y="0" width="800" height="48" fill="#1a1a2e" rx="12"/>
  <rect x="0" y="24" width="800" height="24" fill="#1a1a2e"/>
  <circle cx="24" cy="24" r="6" fill="#ef4444"/>
  <circle cx="44" cy="24" r="6" fill="#fbbf24"/>
  <circle cx="64" cy="24" r="6" fill="#22c55e"/>
  <rect x="100" y="14" width="400" height="20" rx="10" fill="#111127"/>
  <text x="300" y="28" font-family="'Inter','Segoe UI',sans-serif" font-size="11" fill="#6b7280" text-anchor="middle">linkedin.com</text>
  <rect x="200" y="65" width="400" height="420" fill="#132238" rx="16"/>
  <rect x="200" y="65" width="400" height="50" fill="#0d1a30" rx="16"/>
  <rect x="200" y="100" width="400" height="15" fill="#0d1a30"/>
  <circle cx="225" cy="90" r="8" fill="#0077b5" opacity="0.4"/>
  <text x="250" y="95" font-family="'Inter',sans-serif" font-size="14" fill="#e5e7eb" font-weight="600">Extension Popup</text>
  <rect x="540" y="78" width="40" height="24" rx="12" fill="#0077b5" opacity="0.3"/>
  <rect x="220" y="130" width="360" height="44" fill="#0d1a30" rx="10"/>
  <text x="240" y="157" font-family="'Inter',sans-serif" font-size="12" fill="#6b7280">🔍 Search candidates...</text>
  <rect x="220" y="190" width="360" height="70" fill="#0d1a30" rx="10"/>
  <circle cx="250" cy="215" r="16" fill="#0077b5" opacity="0.2"/>
  <text x="280" y="212" font-family="'Inter',sans-serif" font-size="12" fill="#e5e7eb">John Smith</text>
  <text x="280" y="230" font-family="'Inter',sans-serif" font-size="10" fill="#6b7280">Senior Developer at Google</text>
  <rect x="510" y="205" width="55" height="24" rx="12" fill="#0077b5" opacity="0.2"/>
  <text x="537" y="221" font-family="'Inter',sans-serif" font-size="9" fill="#0077b5" text-anchor="middle">Save</text>
  <rect x="220" y="275" width="360" height="70" fill="#0d1a30" rx="10"/>
  <circle cx="250" cy="300" r="16" fill="#00a0dc" opacity="0.2"/>
  <text x="280" y="297" font-family="'Inter',sans-serif" font-size="12" fill="#e5e7eb">Sarah Johnson</text>
  <text x="280" y="315" font-family="'Inter',sans-serif" font-size="10" fill="#6b7280">Product Manager at Meta</text>
  <rect x="510" y="290" width="55" height="24" rx="12" fill="#00a0dc" opacity="0.2"/>
  <text x="537" y="306" font-family="'Inter',sans-serif" font-size="9" fill="#00a0dc" text-anchor="middle">Save</text>
  <rect x="220" y="360" width="360" height="70" fill="#0d1a30" rx="10"/>
  <circle cx="250" cy="385" r="16" fill="#0077b5" opacity="0.15"/>
  <text x="280" y="382" font-family="'Inter',sans-serif" font-size="12" fill="#e5e7eb">Mike Chen</text>
  <text x="280" y="400" font-family="'Inter',sans-serif" font-size="10" fill="#6b7280">Lead Engineer at Amazon</text>
  <rect x="510" y="375" width="55" height="24" rx="12" fill="#0077b5" opacity="0.15"/>
  <text x="537" y="391" font-family="'Inter',sans-serif" font-size="9" fill="#0077b5" text-anchor="middle">Save</text>
  <rect x="220" y="450" width="360" height="20" fill="#0d1a30" rx="10"/>
  <rect x="220" y="450" width="200" height="20" fill="#0077b5" opacity="0.2" rx="10"/>
  <text x="400" y="485" font-size="13" fill="#6b7280" text-anchor="middle" font-family="'Inter','Segoe UI',sans-serif">🎯 LinkedIn Recruiter — JavaScript · Chrome Extension · AI</text>
</svg>