<svg xmlns="http://www.w3.org/2000/svg" width="800" height="500" viewBox="0 0 800 500">
  <rect width="800" height="500" fill="#0f172a" rx="12"/>
  <rect x="0" y="0" width="800" height="48" fill="#1e293b" rx="12"/>
  <rect x="0" y="24" width="800" height="24" fill="#1e293b"/>
  <circle cx="24" cy="24" r="6" fill="#ef4444"/>
  <circle cx="44" cy="24" r="6" fill="#fbbf24"/>
  <circle cx="64" cy="24" r="6" fill="#22c55e"/>
  <rect x="100" y="14" width="350" height="20" rx="10" fill="#0f172a"/>
  <text x="275" y="28" font-family="monospace" font-size="11" fill="#6b7280" text-anchor="middle">https://mytradesaas.app</text>
  <rect x="0" y="48" width="160" height="452" fill="#1e293b" rx="0"/>
  <rect x="175" y="65" width="200" height="60" fill="#1e293b" rx="8"/>
  <rect x="390" y="65" width="200" height="60" fill="#1e293b" rx="8"/>
  <rect x="175" y="140" width="600" height="160" fill="#1e293b" rx="8"/>
  <rect x="175" y="315" width="290" height="120" fill="#1e293b" rx="8"/>
  <rect x="480" y="315" width="295" height="120" fill="#1e293b" rx="8"/>
  <line x1="200" y1="200" x2="750" y2="200" stroke="#3b82f6" stroke-width="2" stroke-linecap="round"/>
  <line x1="200" y1="230" x2="600" y2="230" stroke="#22c55e" stroke-width="2" stroke-linecap="round"/>
  <line x1="200" y1="260" x2="400" y2="260" stroke="#ef4444" stroke-width="2" stroke-linecap="round"/>
  <text x="400" y="470" font-size="13" fill="#9ca3af" text-anchor="middle">📈 My Trade SaaS — TypeScript · PostgreSQL</text>
</svg>