<svg xmlns="http://www.w3.org/2000/svg" width="800" height="500" viewBox="0 0 800 500">
  <rect width="800" height="500" fill="#0f172a" rx="12"/>
  <rect x="0" y="0" width="800" height="48" fill="#1a1a2e" rx="12"/>
  <rect x="0" y="24" width="800" height="24" fill="#1a1a2e"/>
  <circle cx="24" cy="24" r="6" fill="#ef4444"/>
  <circle cx="44" cy="24" r="6" fill="#fbbf24"/>
  <circle cx="64" cy="24" r="6" fill="#22c55e"/>
  <rect x="100" y="14" width="400" height="20" rx="10" fill="#111127"/>
  <text x="300" y="28" font-family="'Inter','Segoe UI',sans-serif" font-size="11" fill="#6b7280" text-anchor="middle">my-trade-saas.vercel.app</text>
  <rect x="0" y="48" width="180" height="452" fill="#1e293b" rx="0"/>
  <rect x="15" y="65" width="150" height="12" rx="6" fill="#eab308" opacity="0.3"/>
  <rect x="15" y="90" width="120" height="8" rx="4" fill="#ffffff" opacity="0.1"/>
  <rect x="15" y="110" width="130" height="8" rx="4" fill="#ffffff" opacity="0.1"/>
  <rect x="15" y="130" width="110" height="8" rx="4" fill="#ffffff" opacity="0.1"/>
  <rect x="15" y="150" width="140" height="8" rx="4" fill="#ffffff" opacity="0.1"/>
  <rect x="15" y="170" width="100" height="8" rx="4" fill="#ffffff" opacity="0.1"/>
  <rect x="15" y="210" width="150" height="8" rx="4" fill="#eab308" opacity="0.2"/>
  <rect x="15" y="230" width="120" height="8" rx="4" fill="#ffffff" opacity="0.1"/>
  <rect x="15" y="250" width="140" height="8" rx="4" fill="#ffffff" opacity="0.1"/>
  <rect x="200" y="65" width="260" height="120" fill="#1e293b" rx="12"/>
  <rect x="220" y="85" width="80" height="10" rx="5" fill="#eab308" opacity="0.4"/>
  <text x="220" y="115" font-family="monospace" font-size="28" fill="#eab308" font-weight="bold">2,847</text>
  <text x="220" y="135" font-family="'Inter',sans-serif" font-size="11" fill="#6b7280">+12.5% from last month</text>
  <rect x="220" y="150" width="220" height="4" fill="#eab308" opacity="0.2" rx="2"/>
  <rect x="220" y="150" width="160" height="4" fill="#eab308" rx="2"/>
  <rect x="480" y="65" width="300" height="120" fill="#1e293b" rx="12"/>
  <rect x="500" y="85" width="60" height="10" rx="5" fill="#facc15" opacity="0.4"/>
  <rect x="500" y="105" width="260" height="60" fill="#1e293b" rx="4"/>
  <rect x="500" y="160" width="40" height="4" fill="#eab308" rx="2"/>
  <rect x="550" y="155" width="30" height="8" fill="#facc15" opacity="0.3" rx="2"/>
  <rect x="590" y="150" width="50" height="12" fill="#eab308" opacity="0.2" rx="4"/>
  <rect x="200" y="200" width="580" height="280" fill="#1e293b" rx="12"/>
  <rect x="220" y="220" width="100" height="10" rx="5" fill="#eab308" opacity="0.3"/>
  <text x="220" y="250" font-family="'Inter',sans-serif" font-size="10" fill="#4b5563">Activity</text>
  <rect x="220" y="260" width="540" height="180" fill="#1e293b" rx="4"/>
  <line x1="220" y1="340" x2="760" y2="340" stroke="#ffffff" stroke-opacity="0.05" stroke-width="1"/>
  <line x1="220" y1="300" x2="760" y2="300" stroke="#ffffff" stroke-opacity="0.05" stroke-width="1"/>
  <line x1="220" y1="380" x2="760" y2="380" stroke="#ffffff" stroke-opacity="0.05" stroke-width="1"/>
  <polyline points="240,370 300,350 360,360 420,320 480,330 540,290 600,310 660,280 720,300 750,270" fill="none" stroke="#eab308" stroke-width="2.5" stroke-linecap="round" stroke-linejoin="round"/>
  <polyline points="240,370 300,350 360,360 420,320 480,330 540,290 600,310 660,280 720,300 750,270" fill="url(#dashGrad)" stroke="none"/>
  <defs><linearGradient id="dashGrad" x1="0" y1="0" x2="0" y2="1"><stop offset="0%" stop-color="#eab308" stop-opacity="0.3"/><stop offset="100%" stop-color="#eab308" stop-opacity="0"/></linearGradient></defs>
  <text x="400" y="485" font-size="13" fill="#6b7280" text-anchor="middle" font-family="'Inter','Segoe UI',sans-serif">📈 My Trade SaaS — TypeScript · PostgreSQL · Trading</text>
</svg>