<svg xmlns="http://www.w3.org/2000/svg" width="800" height="500" viewBox="0 0 800 500">
  <rect width="800" height="500" fill="#0a1628" rx="12"/>
  <rect x="0" y="0" width="800" height="48" fill="#1a1a2e" rx="12"/>
  <rect x="0" y="24" width="800" height="24" fill="#1a1a2e"/>
  <circle cx="24" cy="24" r="6" fill="#ef4444"/>
  <circle cx="44" cy="24" r="6" fill="#fbbf24"/>
  <circle cx="64" cy="24" r="6" fill="#22c55e"/>
  <rect x="100" y="14" width="400" height="20" rx="10" fill="#111127"/>
  <text x="300" y="28" font-family="'Inter','Segoe UI',sans-serif" font-size="11" fill="#6b7280" text-anchor="middle">github.com/mamoor123/ReverseSearch-Engine</text>
  <rect x="40" y="70" width="720" height="60" fill="#12264a" rx="12"/>
  <rect x="60" y="82" width="500" height="36" fill="#0d1c34" rx="10"/>
  <text x="80" y="105" font-family="'Inter',sans-serif" font-size="13" fill="#6b7280">🔍 I need a website for my bakery...</text>
  <rect x="580" y="82" width="160" height="36" fill="#8b5cf6" rx="10"/>
  <text x="660" y="105" font-family="'Inter',sans-serif" font-size="13" fill="#fff" text-anchor="middle" font-weight="600">Search</text>
  <rect x="40" y="150" width="350" height="140" fill="#12264a" rx="12"/>
  <text x="60" y="175" font-family="'Inter',sans-serif" font-size="13" fill="#a78bfa">🏪 Bakery Website</text>
  <text x="60" y="195" font-family="'Inter',sans-serif" font-size="11" fill="#9ca3af">Custom design, online ordering, menu display</text>
  <rect x="60" y="210" width="80" height="22" rx="11" fill="#8b5cf6" opacity="0.15"/>
  <text x="100" y="225" font-family="'Inter',sans-serif" font-size="9" fill="#8b5cf6" text-anchor="middle">Web Design</text>
  <rect x="150" y="210" width="80" height="22" rx="11" fill="#a78bfa" opacity="0.15"/>
  <text x="190" y="225" font-family="'Inter',sans-serif" font-size="9" fill="#a78bfa" text-anchor="middle">E-commerce</text>
  <text x="60" y="265" font-family="monospace" font-size="16" fill="#8b5cf6" font-weight="bold">$2,500</text>
  <rect x="410" y="150" width="350" height="140" fill="#12264a" rx="12"/>
  <text x="430" y="175" font-family="'Inter',sans-serif" font-size="13" fill="#a78bfa">🎂 Custom Bakery App</text>
  <text x="430" y="195" font-family="'Inter',sans-serif" font-size="11" fill="#9ca3af">Full mobile app with ordering system</text>
  <rect x="430" y="210" width="80" height="22" rx="11" fill="#8b5cf6" opacity="0.15"/>
  <text x="470" y="225" font-family="'Inter',sans-serif" font-size="9" fill="#8b5cf6" text-anchor="middle">Mobile</text>
  <rect x="520" y="210" width="80" height="22" rx="11" fill="#a78bfa" opacity="0.15"/>
  <text x="560" y="225" font-family="'Inter',sans-serif" font-size="9" fill="#a78bfa" text-anchor="middle">Full Stack</text>
  <text x="430" y="265" font-family="monospace" font-size="16" fill="#8b5cf6" font-weight="bold">$5,000</text>
  <rect x="40" y="310" width="350" height="140" fill="#12264a" rx="12"/>
  <text x="60" y="335" font-family="'Inter',sans-serif" font-size="13" fill="#a78bfa">📦 Delivery Integration</text>
  <text x="60" y="355" font-family="'Inter',sans-serif" font-size="11" fill="#9ca3af">Add delivery tracking to existing site</text>
  <rect x="60" y="370" width="80" height="22" rx="11" fill="#8b5cf6" opacity="0.15"/>
  <text x="100" y="385" font-family="'Inter',sans-serif" font-size="9" fill="#8b5cf6" text-anchor="middle">API</text>
  <text x="60" y="425" font-family="monospace" font-size="16" fill="#8b5cf6" font-weight="bold">$800</text>
  <text x="400" y="485" font-size="13" fill="#6b7280" text-anchor="middle" font-family="'Inter','Segoe UI',sans-serif">🔍 ReverseSearch Engine — TypeScript · PostgreSQL · Marketplace</text>
</svg>