<svg xmlns="http://www.w3.org/2000/svg" width="400" height="700" viewBox="0 0 400 700">
  <rect width="400" height="700" rx="16" fill="#1c1c1c"/>
  <rect x="0" y="0" width="400" height="55" rx="16" fill="#14a800"/>
  <rect x="0" y="28" width="400" height="27" fill="#14a800"/>
  <text x="20" y="36" fill="white" font-family="Arial,sans-serif" font-size="20" font-weight="bold">upwork</text>
  <text x="240" y="36" fill="white" font-family="Arial,sans-serif" font-size="11">Top Rated Plus</text>
  <!-- Stars -->
  <g transform="translate(240,46)">
    <polygon points="0,-5 1.5,-1.5 6,-1.5 2.5,1 3.8,5 0,2.8 -3.8,5 -2.5,1 -6,-1.5 -1.5,-1.5" fill="#ffc107"/>
    <polygon points="14,-5 15.5,-1.5 20,-1.5 16.5,1 17.8,5 14,2.8 10.2,5 8.9,1 5.4,-1.5 10.5,-1.5" fill="#ffc107"/>
    <polygon points="28,-5 29.5,-1.5 34,-1.5 30.5,1 31.8,5 28,2.8 24.2,5 22.9,1 19.4,-1.5 24.5,-1.5" fill="#ffc107"/>
    <polygon points="42,-5 43.5,-1.5 48,-1.5 44.5,1 45.8,5 42,2.8 38.2,5 36.9,1 33.4,-1.5 38.5,-1.5" fill="#ffc107"/>
    <polygon points="56,-5 57.5,-1.5 62,-1.5 58.5,1 59.8,5 56,2.8 52.2,5 50.9,1 47.4,-1.5 52.5,-1.5" fill="#ffc107"/>
  </g>
  <rect x="20" y="75" width="360" height="50" rx="10" fill="#262626"/>
  <text x="35" y="97" fill="white" font-family="Arial,sans-serif" font-size="14" font-weight="bold">AI-Powered Customer Support System</text>
  <text x="35" y="115" fill="#b0b0b0" font-family="Arial,sans-serif" font-size="11">Fixed Price: $3,200  |  Duration: 3 weeks</text>
  <!-- Big 5.0 rating -->
  <text x="20" y="165" fill="#14a800" font-family="Arial,sans-serif" font-size="36" font-weight="bold">5.0</text>
  <g transform="translate(95,148)">
    <polygon points="0,-8 2.4,-2.5 9.3,-2.5 3.8,1.5 5.8,8 0,4.3 -5.8,8 -3.8,1.5 -9.3,-2.5 -2.4,-2.5" fill="#ffc107"/>
    <polygon points="22,-8 24.4,-2.5 31.3,-2.5 25.8,1.5 27.8,8 22,4.3 16.2,8 14.2,1.5 8.7,-2.5 15.6,-2.5" fill="#ffc107"/>
    <polygon points="44,-8 46.4,-2.5 53.3,-2.5 47.8,1.5 49.8,8 44,4.3 38.2,8 36.2,1.5 30.7,-2.5 37.6,-2.5" fill="#ffc107"/>
    <polygon points="66,-8 68.4,-2.5 75.3,-2.5 69.8,1.5 71.8,8 66,4.3 60.2,8 58.2,1.5 52.7,-2.5 59.6,-2.5" fill="#ffc107"/>
    <polygon points="88,-8 90.4,-2.5 97.3,-2.5 91.8,1.5 93.8,8 88,4.3 82.2,8 80.2,1.5 74.7,-2.5 81.6,-2.5" fill="#ffc107"/>
  </g>
  <circle cx="45" cy="200" r="22" fill="#262626"/>
  <text x="45" y="206" text-anchor="middle" fill="#14a800" font-family="Arial,sans-serif" font-size="14" font-weight="bold">SM</text>
  <text x="78" y="192" fill="white" font-family="Arial,sans-serif" font-size="13" font-weight="bold">Sarah M.</text>
  <text x="78" y="208" fill="#b0b0b0" font-family="Arial,sans-serif" font-size="10">CEO, TechStart Inc. (UK)</text>
  <text x="78" y="224" fill="#14a800" font-family="Arial,sans-serif" font-size="10">$50K+ spent on Upwork</text>
  <!-- Score cards -->
  <rect x="20" y="245" width="110" height="55" rx="8" fill="#262626"/>
  <text x="75" y="272" text-anchor="middle" fill="#14a800" font-family="Arial,sans-serif" font-size="22" font-weight="bold">5.0</text>
  <text x="75" y="290" text-anchor="middle" fill="#b0b0b0" font-family="Arial,sans-serif" font-size="9">Quality</text>
  <rect x="145" y="245" width="110" height="55" rx="8" fill="#262626"/>
  <text x="200" y="272" text-anchor="middle" fill="#14a800" font-family="Arial,sans-serif" font-size="22" font-weight="bold">5.0</text>
  <text x="200" y="290" text-anchor="middle" fill="#b0b0b0" font-family="Arial,sans-serif" font-size="9">Communication</text>
  <rect x="270" y="245" width="110" height="55" rx="8" fill="#262626"/>
  <text x="325" y="272" text-anchor="middle" fill="#14a800" font-family="Arial,sans-serif" font-size="22" font-weight="bold">5.0</text>
  <text x="325" y="290" text-anchor="middle" fill="#b0b0b0" font-family="Arial,sans-serif" font-size="9">Schedule</text>
  <text x="20" y="340" fill="white" font-family="Arial,sans-serif" font-size="14" font-weight="bold">Detailed Review</text>
  <text x="20" y="370" fill="#d0d0d0" font-family="Arial,sans-serif" font-size="12">Mamoor is an outstanding developer who</text>
  <text x="20" y="388" fill="#d0d0d0" font-family="Arial,sans-serif" font-size="12">exceeded all expectations. He built a full</text>
  <text x="20" y="406" fill="#d0d0d0" font-family="Arial,sans-serif" font-size="12">AI customer support system with:</text>
  <text x="30" y="434" fill="#14a800" font-family="Arial,sans-serif" font-size="11">Multi-agent architecture</text>
  <text x="30" y="454" fill="#14a800" font-family="Arial,sans-serif" font-size="11">24/7 autonomous operation</text>
  <text x="30" y="474" fill="#14a800" font-family="Arial,sans-serif" font-size="11">Integration with existing CRM</text>
  <text x="30" y="494" fill="#14a800" font-family="Arial,sans-serif" font-size="11">Real-time sentiment analysis</text>
  <text x="30" y="514" fill="#14a800" font-family="Arial,sans-serif" font-size="11">Human handoff when needed</text>
  <text x="20" y="544" fill="#d0d0d0" font-family="Arial,sans-serif" font-size="12">The system reduced our support tickets by</text>
  <text x="20" y="562" fill="#d0d0d0" font-family="Arial,sans-serif" font-size="12">60% and improved customer satisfaction.</text>
  <text x="20" y="580" fill="#d0d0d0" font-family="Arial,sans-serif" font-size="12">Highly recommend for any AI project!</text>
  <rect x="20" y="600" width="360" height="45" rx="10" fill="#0d2d0d"/>
  <text x="35" y="628" fill="#14a800" font-family="Arial,sans-serif" font-size="13" font-weight="bold">Would hire again - 100%</text>
  <text x="35" y="642" fill="#8696a0" font-family="Arial,sans-serif" font-size="10">Job completed  |  3 weeks  |  $3,200</text>
  <rect x="20" y="660" width="360" height="25" rx="6" fill="#14a800" opacity="0.15"/>
  <text x="200" y="678" text-anchor="middle" fill="#14a800" font-family="Arial,sans-serif" font-size="10">Repeat Client - 3rd project with Mamoor</text>
</svg>